<?xml version="1.0" encoding="utf-8"?>
<!-- Generator: Adobe Illustrator 28.0.0, SVG Export Plug-In . SVG Version: 6.00 Build 0)  -->
<svg version="1.1" id="logo" xmlns="http://www.w3.org/2000/svg" xmlns:xlink="http://www.w3.org/1999/xlink" x="0px" y="0px"
	 viewBox="0 0 276.2 285" style="enable-background:new 0 0 276.2 285;" xml:space="preserve">
<style type="text/css">
	.st0{fill:#009245;}
</style>
<g>
	<path class="st0" d="M183.4,95.3c4,1.9,6.6-2,9.9-3.4c54-22.9,95.6,17.6,79.2,72.2c-9.7,32.4-42.6,41.8-73,33.2
		c-3.9-1.1-20.1-9.5-22.1-7.3c17.6,20.3,30.1,43.6,12.4,68.7c-17.4,24.7-56.4,30.9-80.1,11.5c13-18.4,22-39.2,27.4-61.2
		c1.1-4.4,6.4-21.6-2-18c-1.4,7.4-3.5,14.7-6.3,21.6c-4.7,11.6-17.5,35.9-30.8,37.9c-7.1,1.1-13.8-1.7-17.7-7.8
		c-11.6-18,10.4-39.2,17.4-54.8c-11.4,5.4-24.6,10.9-37.4,11.9C-21,206.3-19.8,72.7,62.1,86.6c11.3,1.9,21.4,7.6,32.6,9.7
		c1.2-1.3-7.6-13-8.8-15.6C70.2,47.3,89.3,6.9,126.4,0.9c45.4-7.3,81.8,29.9,65,75C190.1,79.3,182,93.2,183.4,95.3z M145.9,104.5
		c-40.2-1.2-39.9,20.7-55.3,28c-10.9,5.2-13-3.3-20-9.5c-8.2-7.2-16.6-11.4-27.5-10.1c-0.5,12.9,9.1,22.1,18.6,27.8
		c-9.8,6.6-18.1,16.5-15.9,29.7c11.2,1,22.3-9.8,28-15.1c3.8-3.5,8.6-6.3,11.2-6.5c4-0.3,9.3-1.5,19,11.5
		c18.9,25.4,58.5,22,71.3,16.5c-6.4-3.7-12.1-14.6-12.5-22.4c-0.1-1.7,2-1.8,2.5-0.2c2.8,8.1,9.3,16.2,20.6,17.9
		c13.1-6.3,24.7-18,33-30.4c-10.6-15.1-20-24.5-36.2-32.3c-2.1-1-7.1-2-8.4-3.1c-1-0.9-3.2-7.9-5.1-10.6
		c-11.7-16.4-35-15.4-49.3-3.8c-2.2,1.7-7.4,5.5-7,8.2c1.4,8,9.1,0.8,13.1-0.5C136.1,96.1,144.4,101.1,145.9,104.5z"/>
		<circle class="st0" cx="189.1" cy="138.6" r="6.5"/>
</g>
</svg>
